# xmcd CD database file
#
# Track frame offsets:
#	150
#	29102
#	66480
#	93284
#	119866
#	138670
#	155408
#	190387
#	230485
#	254363
#	283600
#
# Disc length: 4259 seconds
#
# Revision: 0
# Processed by: cddbd v1.5.2PL0 Copyright (c) Steve Scherf et al.
# Submitted via: CDex 1.70beta2
#
DISCID=ae10a10b
DTITLE=Shiva Rea - Yoga Sol
DYEAR=2006
DGENRE=New Age
TTITLE0=Boozoo Bajou - YMA
TTITLE1=Kaya Project - One God Dub
TTITLE2=David Ralicke - You Always
TTITLE3=Girish - Ganapati
TTITLE4=Greg Hunter - Geonosis Part I
TTITLE5=Thievery Corporation - Satyam Shiva Sundaram
TTITLE6=Carlos Torres - Celebration
TTITLE7=Rara Avis - Lunar Groove II
TTITLE8=David Ralicke - Summertime
TTITLE9=Govindas - Om Namah Shivaya
TTITLE10=Steve Gold - So Much Magnificence
EXTD=YEAR: 2006
EXTT0=
EXTT1=
EXTT2=
EXTT3=
EXTT4=
EXTT5=
EXTT6=
EXTT7=
EXTT8=
EXTT9=
EXTT10=
PLAYORDER=
